<svg xmlns="http://www.w3.org/2000/svg" xmlns:xlink="http://www.w3.org/1999/xlink" xmlns:s="https://github.com/nturley/netlistsvg" width="1605" height="426.5"><style>svg {
  stroke:#000;
  fill:none;
}
text {
  fill:#000;
  stroke:none;
  font-size:10px;
  font-weight: bold;
  font-family: "Courier New", monospace;
}
line {
    stroke-linecap: round;
}
.nodelabel {
  text-anchor: middle;
}
.inputPortLabel {
  text-anchor: end;
}
.splitjoinBody {
  fill:#000;
}</style><g s:type="sub_odd" transform="translate(227,22)" s:width="30" s:height="40" id="cell_adder1"><text x="115" y="-4" class="nodelabel cell_adder1" s:attribute="ref">adder</text><rect width="230" height="151" s:generic="body" fill="#e9e9e9" rx="4" class="cell_adder1"/><g s:type="and" transform="translate(120,46.5)" s:width="30" s:height="25" id="cell_$and$Mult_Adder.v:18$4"><s:alias val="$and"/><s:alias val="$logic_and"/><s:alias val="$_AND_"/><path d="M0,0 L0,25 L15,25 A15 12.5 0 0 0 15,0 Z" fill="#eebaff" class="cell_$and$Mult_Adder.v:18$4"/><g s:x="0" s:y="5" s:pid="A"/><g s:x="0" s:y="20" s:pid="B"/><g s:x="30" s:y="12.5" s:pid="Y"/></g><g s:type="and" transform="translate(120,106.5)" s:width="30" s:height="25" id="cell_$and$Mult_Adder.v:18$5"><s:alias val="$and"/><s:alias val="$logic_and"/><s:alias val="$_AND_"/><path d="M0,0 L0,25 L15,25 A15 12.5 0 0 0 15,0 Z" fill="#eebaff" class="cell_$and$Mult_Adder.v:18$5"/><g s:x="0" s:y="5" s:pid="A"/><g s:x="0" s:y="20" s:pid="B"/><g s:x="30" s:y="12.5" s:pid="Y"/></g><g s:type="or" transform="translate(186,99)" s:width="30" s:height="25" id="cell_$or$Mult_Adder.v:18$6"><s:alias val="$or"/><s:alias val="$logic_or"/><s:alias val="$_OR_"/><path d="M0,25 L0,25 L15,25 A15 12.5 0 0 0 15,0 L0,0 A30 25 0 0 1 0,25 Z" fill="#eebaff" class="cell_$or$Mult_Adder.v:18$6"/><g s:x="2" s:y="5" s:pid="A"/><g s:x="2" s:y="20" s:pid="B"/><g s:x="30" s:y="12.5" s:pid="Y"/></g><g s:type="reduce_xor" transform="translate(52,12)" s:width="33" s:height="25" id="cell_$xor$Mult_Adder.v:16$2"><s:alias val="$xor"/><s:alias val="$reduce_xor"/><s:alias val="$_XOR_"/><path d="M3,0 A30 25 0 0 1 3,25 A30 25 0 0 0 33,12.5 A30 25 0 0 0 3,0" fill="#eebaff" class="cell_$xor$Mult_Adder.v:16$2"/><path d="M0,0 A30 25 0 0 1 0,25" class="cell_$xor$Mult_Adder.v:16$2"/><g s:x="2" s:y="5" s:pid="A"/><g s:x="2" s:y="20" s:pid="B"/><g s:x="33" s:y="12.5" s:pid="Y"/></g><g s:type="reduce_xor" transform="translate(185,15.5)" s:width="33" s:height="25" id="cell_$xor$Mult_Adder.v:17$3"><s:alias val="$xor"/><s:alias val="$reduce_xor"/><s:alias val="$_XOR_"/><path d="M3,0 A30 25 0 0 1 3,25 A30 25 0 0 0 33,12.5 A30 25 0 0 0 3,0" fill="#eebaff" class="cell_$xor$Mult_Adder.v:17$3"/><path d="M0,0 A30 25 0 0 1 0,25" class="cell_$xor$Mult_Adder.v:17$3"/><g s:x="2" s:y="5" s:pid="A"/><g s:x="2" s:y="20" s:pid="B"/><g s:x="33" s:y="12.5" s:pid="Y"/></g><line x1="85" x2="105" y1="24.5" y2="24.5" class="net_7"/><line x1="105" x2="105" y1="24.5" y2="51.5" class="net_7"/><circle cx="105" cy="24.5" r="2" style="fill:#000" class="net_7"/><line x1="105" x2="120" y1="51.5" y2="51.5" class="net_7"/><line x1="85" x2="160" y1="24.5" y2="24.5" class="net_7"/><line x1="160" x2="160" y1="24.5" y2="20.5" class="net_7"/><line x1="160" x2="187" y1="20.5" y2="20.5" class="net_7"/><line x1="0" x2="42" y1="103.5" y2="103.5" class="net_4"/><line x1="42" x2="42" y1="103.5" y2="66.5" class="net_4"/><line x1="42" x2="120" y1="66.5" y2="66.5" class="net_4"/><line x1="0" x2="42" y1="103.5" y2="103.5" class="net_4"/><line x1="42" x2="42" y1="103.5" y2="66.5" class="net_4"/><line x1="42" x2="95" y1="66.5" y2="66.5" class="net_4"/><line x1="95" x2="95" y1="66.5" y2="35.5" class="net_4"/><circle cx="95" cy="66.5" r="2" style="fill:#000" class="net_4"/><line x1="95" x2="187" y1="35.5" y2="35.5" class="net_4"/><line x1="0" x2="95" y1="80.5" y2="80.5" class="net_2"/><line x1="95" x2="95" y1="80.5" y2="111.5" class="net_2"/><line x1="95" x2="120" y1="111.5" y2="111.5" class="net_2"/><line x1="0" x2="22" y1="80.5" y2="80.5" class="net_2"/><line x1="22" x2="22" y1="80.5" y2="17" class="net_2"/><circle cx="22" cy="80.5" r="2" style="fill:#000" class="net_2"/><line x1="22" x2="54" y1="17" y2="17" class="net_2"/><line x1="0" x2="120" y1="126.5" y2="126.5" class="net_3"/><line x1="0" x2="32" y1="126.5" y2="126.5" class="net_3"/><line x1="32" x2="32" y1="126.5" y2="32" class="net_3"/><circle cx="32" cy="126.5" r="2" style="fill:#000" class="net_3"/><line x1="32" x2="54" y1="32" y2="32" class="net_3"/><line x1="150" x2="160" y1="59" y2="59" class="net_8"/><line x1="160" x2="160" y1="59" y2="104" class="net_8"/><line x1="160" x2="188" y1="104" y2="104" class="net_8"/><line x1="150" x2="188" y1="119" y2="119" class="net_9"/><line x1="218" x2="230" y1="28" y2="28" class="net_5"/><line x1="216" x2="230" y1="111.5" y2="111.5" class="net_6"/><g transform="translate(-1,103)" s:x="0" s:y="10" s:pid="in0" id="port_adder1~cin"><text x="-3" y="-4" class="inputPortLabel cell_adder1">cin</text></g><g transform="translate(-1,80)" s:x="0" s:y="10" s:pid="in0" id="port_adder1~x"><text x="-3" y="-4" class="inputPortLabel cell_adder1">x</text></g><g transform="translate(-1,126)" s:x="0" s:y="10" s:pid="in0" id="port_adder1~y"><text x="-3" y="-4" class="inputPortLabel cell_adder1">y</text></g><g transform="translate(230,111)" s:x="30" s:y="10" s:pid="out0" id="port_adder1~carry"><text x="5" y="-4" style="fill:#000; stroke:none" class="cell_adder1">carry</text></g><g transform="translate(230,27.5)" s:x="30" s:y="10" s:pid="out0" id="port_adder1~sum"><text x="5" y="-4" style="fill:#000; stroke:none" class="cell_adder1">sum</text></g></g><g s:type="sub_odd" transform="translate(544,102.5)" s:width="30" s:height="40" id="cell_adder2"><text x="115" y="-4" class="nodelabel cell_adder2" s:attribute="ref">adder</text><rect width="230" height="151" s:generic="body" fill="#e9e9e9" rx="4" class="cell_adder2"/><g s:type="and" transform="translate(120,46.5)" s:width="30" s:height="25" id="cell_$and$Mult_Adder.v:18$4"><s:alias val="$and"/><s:alias val="$logic_and"/><s:alias val="$_AND_"/><path d="M0,0 L0,25 L15,25 A15 12.5 0 0 0 15,0 Z" fill="#eebaff" class="cell_$and$Mult_Adder.v:18$4"/><g s:x="0" s:y="5" s:pid="A"/><g s:x="0" s:y="20" s:pid="B"/><g s:x="30" s:y="12.5" s:pid="Y"/></g><g s:type="and" transform="translate(120,106.5)" s:width="30" s:height="25" id="cell_$and$Mult_Adder.v:18$5"><s:alias val="$and"/><s:alias val="$logic_and"/><s:alias val="$_AND_"/><path d="M0,0 L0,25 L15,25 A15 12.5 0 0 0 15,0 Z" fill="#eebaff" class="cell_$and$Mult_Adder.v:18$5"/><g s:x="0" s:y="5" s:pid="A"/><g s:x="0" s:y="20" s:pid="B"/><g s:x="30" s:y="12.5" s:pid="Y"/></g><g s:type="or" transform="translate(186,99)" s:width="30" s:height="25" id="cell_$or$Mult_Adder.v:18$6"><s:alias val="$or"/><s:alias val="$logic_or"/><s:alias val="$_OR_"/><path d="M0,25 L0,25 L15,25 A15 12.5 0 0 0 15,0 L0,0 A30 25 0 0 1 0,25 Z" fill="#eebaff" class="cell_$or$Mult_Adder.v:18$6"/><g s:x="2" s:y="5" s:pid="A"/><g s:x="2" s:y="20" s:pid="B"/><g s:x="30" s:y="12.5" s:pid="Y"/></g><g s:type="reduce_xor" transform="translate(52,12)" s:width="33" s:height="25" id="cell_$xor$Mult_Adder.v:16$2"><s:alias val="$xor"/><s:alias val="$reduce_xor"/><s:alias val="$_XOR_"/><path d="M3,0 A30 25 0 0 1 3,25 A30 25 0 0 0 33,12.5 A30 25 0 0 0 3,0" fill="#eebaff" class="cell_$xor$Mult_Adder.v:16$2"/><path d="M0,0 A30 25 0 0 1 0,25" class="cell_$xor$Mult_Adder.v:16$2"/><g s:x="2" s:y="5" s:pid="A"/><g s:x="2" s:y="20" s:pid="B"/><g s:x="33" s:y="12.5" s:pid="Y"/></g><g s:type="reduce_xor" transform="translate(185,15.5)" s:width="33" s:height="25" id="cell_$xor$Mult_Adder.v:17$3"><s:alias val="$xor"/><s:alias val="$reduce_xor"/><s:alias val="$_XOR_"/><path d="M3,0 A30 25 0 0 1 3,25 A30 25 0 0 0 33,12.5 A30 25 0 0 0 3,0" fill="#eebaff" class="cell_$xor$Mult_Adder.v:17$3"/><path d="M0,0 A30 25 0 0 1 0,25" class="cell_$xor$Mult_Adder.v:17$3"/><g s:x="2" s:y="5" s:pid="A"/><g s:x="2" s:y="20" s:pid="B"/><g s:x="33" s:y="12.5" s:pid="Y"/></g><line x1="85" x2="105" y1="24.5" y2="24.5" class="net_7"/><line x1="105" x2="105" y1="24.5" y2="51.5" class="net_7"/><circle cx="105" cy="24.5" r="2" style="fill:#000" class="net_7"/><line x1="105" x2="120" y1="51.5" y2="51.5" class="net_7"/><line x1="85" x2="160" y1="24.5" y2="24.5" class="net_7"/><line x1="160" x2="160" y1="24.5" y2="20.5" class="net_7"/><line x1="160" x2="187" y1="20.5" y2="20.5" class="net_7"/><line x1="0" x2="42" y1="103.5" y2="103.5" class="net_4"/><line x1="42" x2="42" y1="103.5" y2="66.5" class="net_4"/><line x1="42" x2="120" y1="66.5" y2="66.5" class="net_4"/><line x1="0" x2="42" y1="103.5" y2="103.5" class="net_4"/><line x1="42" x2="42" y1="103.5" y2="66.5" class="net_4"/><line x1="42" x2="95" y1="66.5" y2="66.5" class="net_4"/><line x1="95" x2="95" y1="66.5" y2="35.5" class="net_4"/><circle cx="95" cy="66.5" r="2" style="fill:#000" class="net_4"/><line x1="95" x2="187" y1="35.5" y2="35.5" class="net_4"/><line x1="0" x2="95" y1="80.5" y2="80.5" class="net_2"/><line x1="95" x2="95" y1="80.5" y2="111.5" class="net_2"/><line x1="95" x2="120" y1="111.5" y2="111.5" class="net_2"/><line x1="0" x2="22" y1="80.5" y2="80.5" class="net_2"/><line x1="22" x2="22" y1="80.5" y2="17" class="net_2"/><circle cx="22" cy="80.5" r="2" style="fill:#000" class="net_2"/><line x1="22" x2="54" y1="17" y2="17" class="net_2"/><line x1="0" x2="120" y1="126.5" y2="126.5" class="net_3"/><line x1="0" x2="32" y1="126.5" y2="126.5" class="net_3"/><line x1="32" x2="32" y1="126.5" y2="32" class="net_3"/><circle cx="32" cy="126.5" r="2" style="fill:#000" class="net_3"/><line x1="32" x2="54" y1="32" y2="32" class="net_3"/><line x1="150" x2="160" y1="59" y2="59" class="net_8"/><line x1="160" x2="160" y1="59" y2="104" class="net_8"/><line x1="160" x2="188" y1="104" y2="104" class="net_8"/><line x1="150" x2="188" y1="119" y2="119" class="net_9"/><line x1="218" x2="230" y1="28" y2="28" class="net_5"/><line x1="216" x2="230" y1="111.5" y2="111.5" class="net_6"/><g transform="translate(-1,103)" s:x="0" s:y="10" s:pid="in0" id="port_adder2~cin"><text x="-3" y="-4" class="inputPortLabel cell_adder2">cin</text></g><g transform="translate(-1,80)" s:x="0" s:y="10" s:pid="in0" id="port_adder2~x"><text x="-3" y="-4" class="inputPortLabel cell_adder2">x</text></g><g transform="translate(-1,126)" s:x="0" s:y="10" s:pid="in0" id="port_adder2~y"><text x="-3" y="-4" class="inputPortLabel cell_adder2">y</text></g><g transform="translate(230,111)" s:x="30" s:y="10" s:pid="out0" id="port_adder2~carry"><text x="5" y="-4" style="fill:#000; stroke:none" class="cell_adder2">carry</text></g><g transform="translate(230,27.5)" s:x="30" s:y="10" s:pid="out0" id="port_adder2~sum"><text x="5" y="-4" style="fill:#000; stroke:none" class="cell_adder2">sum</text></g></g><g s:type="sub_odd" transform="translate(861,183)" s:width="30" s:height="40" id="cell_adder3"><text x="115" y="-4" class="nodelabel cell_adder3" s:attribute="ref">adder</text><rect width="230" height="151" s:generic="body" fill="#e9e9e9" rx="4" class="cell_adder3"/><g s:type="and" transform="translate(120,46.5)" s:width="30" s:height="25" id="cell_$and$Mult_Adder.v:18$4"><s:alias val="$and"/><s:alias val="$logic_and"/><s:alias val="$_AND_"/><path d="M0,0 L0,25 L15,25 A15 12.5 0 0 0 15,0 Z" fill="#eebaff" class="cell_$and$Mult_Adder.v:18$4"/><g s:x="0" s:y="5" s:pid="A"/><g s:x="0" s:y="20" s:pid="B"/><g s:x="30" s:y="12.5" s:pid="Y"/></g><g s:type="and" transform="translate(120,106.5)" s:width="30" s:height="25" id="cell_$and$Mult_Adder.v:18$5"><s:alias val="$and"/><s:alias val="$logic_and"/><s:alias val="$_AND_"/><path d="M0,0 L0,25 L15,25 A15 12.5 0 0 0 15,0 Z" fill="#eebaff" class="cell_$and$Mult_Adder.v:18$5"/><g s:x="0" s:y="5" s:pid="A"/><g s:x="0" s:y="20" s:pid="B"/><g s:x="30" s:y="12.5" s:pid="Y"/></g><g s:type="or" transform="translate(186,99)" s:width="30" s:height="25" id="cell_$or$Mult_Adder.v:18$6"><s:alias val="$or"/><s:alias val="$logic_or"/><s:alias val="$_OR_"/><path d="M0,25 L0,25 L15,25 A15 12.5 0 0 0 15,0 L0,0 A30 25 0 0 1 0,25 Z" fill="#eebaff" class="cell_$or$Mult_Adder.v:18$6"/><g s:x="2" s:y="5" s:pid="A"/><g s:x="2" s:y="20" s:pid="B"/><g s:x="30" s:y="12.5" s:pid="Y"/></g><g s:type="reduce_xor" transform="translate(52,12)" s:width="33" s:height="25" id="cell_$xor$Mult_Adder.v:16$2"><s:alias val="$xor"/><s:alias val="$reduce_xor"/><s:alias val="$_XOR_"/><path d="M3,0 A30 25 0 0 1 3,25 A30 25 0 0 0 33,12.5 A30 25 0 0 0 3,0" fill="#eebaff" class="cell_$xor$Mult_Adder.v:16$2"/><path d="M0,0 A30 25 0 0 1 0,25" class="cell_$xor$Mult_Adder.v:16$2"/><g s:x="2" s:y="5" s:pid="A"/><g s:x="2" s:y="20" s:pid="B"/><g s:x="33" s:y="12.5" s:pid="Y"/></g><g s:type="reduce_xor" transform="translate(185,15.5)" s:width="33" s:height="25" id="cell_$xor$Mult_Adder.v:17$3"><s:alias val="$xor"/><s:alias val="$reduce_xor"/><s:alias val="$_XOR_"/><path d="M3,0 A30 25 0 0 1 3,25 A30 25 0 0 0 33,12.5 A30 25 0 0 0 3,0" fill="#eebaff" class="cell_$xor$Mult_Adder.v:17$3"/><path d="M0,0 A30 25 0 0 1 0,25" class="cell_$xor$Mult_Adder.v:17$3"/><g s:x="2" s:y="5" s:pid="A"/><g s:x="2" s:y="20" s:pid="B"/><g s:x="33" s:y="12.5" s:pid="Y"/></g><line x1="85" x2="105" y1="24.5" y2="24.5" class="net_7"/><line x1="105" x2="105" y1="24.5" y2="51.5" class="net_7"/><circle cx="105" cy="24.5" r="2" style="fill:#000" class="net_7"/><line x1="105" x2="120" y1="51.5" y2="51.5" class="net_7"/><line x1="85" x2="160" y1="24.5" y2="24.5" class="net_7"/><line x1="160" x2="160" y1="24.5" y2="20.5" class="net_7"/><line x1="160" x2="187" y1="20.5" y2="20.5" class="net_7"/><line x1="0" x2="42" y1="103.5" y2="103.5" class="net_4"/><line x1="42" x2="42" y1="103.5" y2="66.5" class="net_4"/><line x1="42" x2="120" y1="66.5" y2="66.5" class="net_4"/><line x1="0" x2="42" y1="103.5" y2="103.5" class="net_4"/><line x1="42" x2="42" y1="103.5" y2="66.5" class="net_4"/><line x1="42" x2="95" y1="66.5" y2="66.5" class="net_4"/><line x1="95" x2="95" y1="66.5" y2="35.5" class="net_4"/><circle cx="95" cy="66.5" r="2" style="fill:#000" class="net_4"/><line x1="95" x2="187" y1="35.5" y2="35.5" class="net_4"/><line x1="0" x2="95" y1="80.5" y2="80.5" class="net_2"/><line x1="95" x2="95" y1="80.5" y2="111.5" class="net_2"/><line x1="95" x2="120" y1="111.5" y2="111.5" class="net_2"/><line x1="0" x2="22" y1="80.5" y2="80.5" class="net_2"/><line x1="22" x2="22" y1="80.5" y2="17" class="net_2"/><circle cx="22" cy="80.5" r="2" style="fill:#000" class="net_2"/><line x1="22" x2="54" y1="17" y2="17" class="net_2"/><line x1="0" x2="120" y1="126.5" y2="126.5" class="net_3"/><line x1="0" x2="32" y1="126.5" y2="126.5" class="net_3"/><line x1="32" x2="32" y1="126.5" y2="32" class="net_3"/><circle cx="32" cy="126.5" r="2" style="fill:#000" class="net_3"/><line x1="32" x2="54" y1="32" y2="32" class="net_3"/><line x1="150" x2="160" y1="59" y2="59" class="net_8"/><line x1="160" x2="160" y1="59" y2="104" class="net_8"/><line x1="160" x2="188" y1="104" y2="104" class="net_8"/><line x1="150" x2="188" y1="119" y2="119" class="net_9"/><line x1="218" x2="230" y1="28" y2="28" class="net_5"/><line x1="216" x2="230" y1="111.5" y2="111.5" class="net_6"/><g transform="translate(-1,103)" s:x="0" s:y="10" s:pid="in0" id="port_adder3~cin"><text x="-3" y="-4" class="inputPortLabel cell_adder3">cin</text></g><g transform="translate(-1,80)" s:x="0" s:y="10" s:pid="in0" id="port_adder3~x"><text x="-3" y="-4" class="inputPortLabel cell_adder3">x</text></g><g transform="translate(-1,126)" s:x="0" s:y="10" s:pid="in0" id="port_adder3~y"><text x="-3" y="-4" class="inputPortLabel cell_adder3">y</text></g><g transform="translate(230,111)" s:x="30" s:y="10" s:pid="out0" id="port_adder3~carry"><text x="5" y="-4" style="fill:#000; stroke:none" class="cell_adder3">carry</text></g><g transform="translate(230,27.5)" s:x="30" s:y="10" s:pid="out0" id="port_adder3~sum"><text x="5" y="-4" style="fill:#000; stroke:none" class="cell_adder3">sum</text></g></g><g s:type="sub_odd" transform="translate(1178,263.5)" s:width="30" s:height="40" id="cell_adder4"><text x="115" y="-4" class="nodelabel cell_adder4" s:attribute="ref">adder</text><rect width="230" height="151" s:generic="body" fill="#e9e9e9" rx="4" class="cell_adder4"/><g s:type="and" transform="translate(120,46.5)" s:width="30" s:height="25" id="cell_$and$Mult_Adder.v:18$4"><s:alias val="$and"/><s:alias val="$logic_and"/><s:alias val="$_AND_"/><path d="M0,0 L0,25 L15,25 A15 12.5 0 0 0 15,0 Z" fill="#eebaff" class="cell_$and$Mult_Adder.v:18$4"/><g s:x="0" s:y="5" s:pid="A"/><g s:x="0" s:y="20" s:pid="B"/><g s:x="30" s:y="12.5" s:pid="Y"/></g><g s:type="and" transform="translate(120,106.5)" s:width="30" s:height="25" id="cell_$and$Mult_Adder.v:18$5"><s:alias val="$and"/><s:alias val="$logic_and"/><s:alias val="$_AND_"/><path d="M0,0 L0,25 L15,25 A15 12.5 0 0 0 15,0 Z" fill="#eebaff" class="cell_$and$Mult_Adder.v:18$5"/><g s:x="0" s:y="5" s:pid="A"/><g s:x="0" s:y="20" s:pid="B"/><g s:x="30" s:y="12.5" s:pid="Y"/></g><g s:type="or" transform="translate(186,99)" s:width="30" s:height="25" id="cell_$or$Mult_Adder.v:18$6"><s:alias val="$or"/><s:alias val="$logic_or"/><s:alias val="$_OR_"/><path d="M0,25 L0,25 L15,25 A15 12.5 0 0 0 15,0 L0,0 A30 25 0 0 1 0,25 Z" fill="#eebaff" class="cell_$or$Mult_Adder.v:18$6"/><g s:x="2" s:y="5" s:pid="A"/><g s:x="2" s:y="20" s:pid="B"/><g s:x="30" s:y="12.5" s:pid="Y"/></g><g s:type="reduce_xor" transform="translate(52,12)" s:width="33" s:height="25" id="cell_$xor$Mult_Adder.v:16$2"><s:alias val="$xor"/><s:alias val="$reduce_xor"/><s:alias val="$_XOR_"/><path d="M3,0 A30 25 0 0 1 3,25 A30 25 0 0 0 33,12.5 A30 25 0 0 0 3,0" fill="#eebaff" class="cell_$xor$Mult_Adder.v:16$2"/><path d="M0,0 A30 25 0 0 1 0,25" class="cell_$xor$Mult_Adder.v:16$2"/><g s:x="2" s:y="5" s:pid="A"/><g s:x="2" s:y="20" s:pid="B"/><g s:x="33" s:y="12.5" s:pid="Y"/></g><g s:type="reduce_xor" transform="translate(185,15.5)" s:width="33" s:height="25" id="cell_$xor$Mult_Adder.v:17$3"><s:alias val="$xor"/><s:alias val="$reduce_xor"/><s:alias val="$_XOR_"/><path d="M3,0 A30 25 0 0 1 3,25 A30 25 0 0 0 33,12.5 A30 25 0 0 0 3,0" fill="#eebaff" class="cell_$xor$Mult_Adder.v:17$3"/><path d="M0,0 A30 25 0 0 1 0,25" class="cell_$xor$Mult_Adder.v:17$3"/><g s:x="2" s:y="5" s:pid="A"/><g s:x="2" s:y="20" s:pid="B"/><g s:x="33" s:y="12.5" s:pid="Y"/></g><line x1="85" x2="105" y1="24.5" y2="24.5" class="net_7"/><line x1="105" x2="105" y1="24.5" y2="51.5" class="net_7"/><circle cx="105" cy="24.5" r="2" style="fill:#000" class="net_7"/><line x1="105" x2="120" y1="51.5" y2="51.5" class="net_7"/><line x1="85" x2="160" y1="24.5" y2="24.5" class="net_7"/><line x1="160" x2="160" y1="24.5" y2="20.5" class="net_7"/><line x1="160" x2="187" y1="20.5" y2="20.5" class="net_7"/><line x1="0" x2="42" y1="103.5" y2="103.5" class="net_4"/><line x1="42" x2="42" y1="103.5" y2="66.5" class="net_4"/><line x1="42" x2="120" y1="66.5" y2="66.5" class="net_4"/><line x1="0" x2="42" y1="103.5" y2="103.5" class="net_4"/><line x1="42" x2="42" y1="103.5" y2="66.5" class="net_4"/><line x1="42" x2="95" y1="66.5" y2="66.5" class="net_4"/><line x1="95" x2="95" y1="66.5" y2="35.5" class="net_4"/><circle cx="95" cy="66.5" r="2" style="fill:#000" class="net_4"/><line x1="95" x2="187" y1="35.5" y2="35.5" class="net_4"/><line x1="0" x2="95" y1="80.5" y2="80.5" class="net_2"/><line x1="95" x2="95" y1="80.5" y2="111.5" class="net_2"/><line x1="95" x2="120" y1="111.5" y2="111.5" class="net_2"/><line x1="0" x2="22" y1="80.5" y2="80.5" class="net_2"/><line x1="22" x2="22" y1="80.5" y2="17" class="net_2"/><circle cx="22" cy="80.5" r="2" style="fill:#000" class="net_2"/><line x1="22" x2="54" y1="17" y2="17" class="net_2"/><line x1="0" x2="120" y1="126.5" y2="126.5" class="net_3"/><line x1="0" x2="32" y1="126.5" y2="126.5" class="net_3"/><line x1="32" x2="32" y1="126.5" y2="32" class="net_3"/><circle cx="32" cy="126.5" r="2" style="fill:#000" class="net_3"/><line x1="32" x2="54" y1="32" y2="32" class="net_3"/><line x1="150" x2="160" y1="59" y2="59" class="net_8"/><line x1="160" x2="160" y1="59" y2="104" class="net_8"/><line x1="160" x2="188" y1="104" y2="104" class="net_8"/><line x1="150" x2="188" y1="119" y2="119" class="net_9"/><line x1="218" x2="230" y1="28" y2="28" class="net_5"/><line x1="216" x2="230" y1="111.5" y2="111.5" class="net_6"/><g transform="translate(-1,103)" s:x="0" s:y="10" s:pid="in0" id="port_adder4~cin"><text x="-3" y="-4" class="inputPortLabel cell_adder4">cin</text></g><g transform="translate(-1,80)" s:x="0" s:y="10" s:pid="in0" id="port_adder4~x"><text x="-3" y="-4" class="inputPortLabel cell_adder4">x</text></g><g transform="translate(-1,126)" s:x="0" s:y="10" s:pid="in0" id="port_adder4~y"><text x="-3" y="-4" class="inputPortLabel cell_adder4">y</text></g><g transform="translate(230,111)" s:x="30" s:y="10" s:pid="out0" id="port_adder4~carry"><text x="5" y="-4" style="fill:#000; stroke:none" class="cell_adder4">carry</text></g><g transform="translate(230,27.5)" s:x="30" s:y="10" s:pid="out0" id="port_adder4~sum"><text x="5" y="-4" style="fill:#000; stroke:none" class="cell_adder4">sum</text></g></g><g s:type="inputExt" transform="translate(12,122.5)" s:width="30" s:height="20" id="cell_in1"><text x="15" y="-4" class="nodelabel cell_in1" s:attribute="ref">in1</text><s:alias val="$_inputExt_"/><path d="M0,0 L0,20 L15,20 L30,10 L15,0 Z" fill="#8bcaff" class="cell_in1"/><g s:x="30" s:y="10" s:pid="Y"/></g><g s:type="inputExt" transform="translate(12,355)" s:width="30" s:height="20" id="cell_in2"><text x="15" y="-4" class="nodelabel cell_in2" s:attribute="ref">in2</text><s:alias val="$_inputExt_"/><path d="M0,0 L0,20 L15,20 L30,10 L15,0 Z" fill="#8bcaff" class="cell_in2"/><g s:x="30" s:y="10" s:pid="Y"/></g><g s:type="outputExt" transform="translate(1563,201)" s:width="30" s:height="20" id="cell_out1"><text x="15" y="-4" class="nodelabel cell_out1" s:attribute="ref">out1</text><s:alias val="$_outputExt_"/><path d="M30,0 L30,20 L15,20 L0,10 L15,0 Z" fill="#169300" class="cell_out1"/><g s:x="0" s:y="10" s:pid="A"/></g><g s:type="constant" transform="translate(77,41)" s:width="30" s:height="20" id="cell_00000000000000000000000000000000"><text x="15" y="-4" class="nodelabel cell_00000000000000000000000000000000" s:attribute="ref">0x0</text><s:alias val="$_constant_"/><rect width="30" height="20" fill="#745bff" class="cell_00000000000000000000000000000000"/><g s:x="31" s:y="10" s:pid="Y"/></g><g s:type="join" transform="translate(1483,160.5)" s:width="5" s:height="40" id="cell_$join$,10,11,12,13,14,"><rect width="5" height="100" class="splitjoinBody" s:generic="body"/><s:alias val="$_join_"/><g s:x="5" s:y="20" s:pid="out"/><g transform="translate(-1,10)" s:x="-1" s:y="10" s:pid="in0"><text x="-3" y="-4" class="inputPortLabel">0</text></g><g transform="translate(-1,30)" s:x="-1" s:y="10" s:pid="in0"><text x="-3" y="-4" class="inputPortLabel">1</text></g><g transform="translate(-1,50)" s:x="-1" s:y="10" s:pid="in0"><text x="-3" y="-4" class="inputPortLabel">2</text></g><g transform="translate(-1,70)" s:x="-1" s:y="10" s:pid="in0"><text x="-3" y="-4" class="inputPortLabel">3</text></g><g transform="translate(-1,90)" s:x="-1" s:y="10" s:pid="in0"><text x="-3" y="-4" class="inputPortLabel">4</text></g></g><g s:type="split" transform="translate(144,92)" s:width="5" s:height="40" id="cell_$split$,2,3,4,5,"><rect width="5" height="80" class="splitjoinBody" s:generic="body"/><s:alias val="$_split_"/><g s:x="-1" s:y="20" s:pid="in"/><g transform="translate(5,10)" s:x="5" s:y="10" s:pid="out0"><text x="5" y="-4">0</text></g><g transform="translate(5,30)" s:x="5" s:y="10" s:pid="out0"><text x="5" y="-4">1</text></g><g transform="translate(5,50)" s:x="5" s:y="10" s:pid="out0"><text x="5" y="-4">2</text></g><g transform="translate(5,70)" s:x="5" s:y="10" s:pid="out0"><text x="5" y="-4">3</text></g></g><g s:type="split" transform="translate(144,324.5)" s:width="5" s:height="40" id="cell_$split$,6,7,8,9,"><rect width="5" height="80" class="splitjoinBody" s:generic="body"/><s:alias val="$_split_"/><g s:x="-1" s:y="20" s:pid="in"/><g transform="translate(5,10)" s:x="5" s:y="10" s:pid="out0"><text x="5" y="-4">0</text></g><g transform="translate(5,30)" s:x="5" s:y="10" s:pid="out0"><text x="5" y="-4">1</text></g><g transform="translate(5,50)" s:x="5" s:y="10" s:pid="out0"><text x="5" y="-4">2</text></g><g transform="translate(5,70)" s:x="5" s:y="10" s:pid="out0"><text x="5" y="-4">3</text></g></g><line x1="108" x2="197" y1="51" y2="51" class="net_18,19,20,21,22,23,24,25,26,27,28,29,30,31,32,33,34,35,36,37,38,39,40,41,42,43,44,45,46,47,48,49 width_32" style="stroke-width: 2"/><line x1="197" x2="197" y1="51" y2="125.5" class="net_18,19,20,21,22,23,24,25,26,27,28,29,30,31,32,33,34,35,36,37,38,39,40,41,42,43,44,45,46,47,48,49 width_32" style="stroke-width: 2"/><line x1="197" x2="226" y1="125.5" y2="125.5" class="net_18,19,20,21,22,23,24,25,26,27,28,29,30,31,32,33,34,35,36,37,38,39,40,41,42,43,44,45,46,47,48,49 width_32" style="stroke-width: 2"/><line x1="150" x2="226" y1="102.5" y2="102.5" class="net_2 width_1" style="stroke-width: 1"/><line x1="150" x2="197" y1="335" y2="335" class="net_6 width_1" style="stroke-width: 1"/><line x1="197" x2="197" y1="335" y2="148.5" class="net_6 width_1" style="stroke-width: 1"/><line x1="197" x2="226" y1="148.5" y2="148.5" class="net_6 width_1" style="stroke-width: 1"/><line x1="458" x2="499" y1="133.5" y2="133.5" class="net_15 width_1" style="stroke-width: 1"/><line x1="499" x2="499" y1="133.5" y2="206" class="net_15 width_1" style="stroke-width: 1"/><line x1="499" x2="543" y1="206" y2="206" class="net_15 width_1" style="stroke-width: 1"/><line x1="150" x2="187" y1="122.5" y2="122.5" class="net_3 width_1" style="stroke-width: 1"/><line x1="187" x2="187" y1="122.5" y2="183" class="net_3 width_1" style="stroke-width: 1"/><line x1="187" x2="543" y1="183" y2="183" class="net_3 width_1" style="stroke-width: 1"/><line x1="150" x2="499" y1="355" y2="355" class="net_7 width_1" style="stroke-width: 1"/><line x1="499" x2="499" y1="355" y2="229" class="net_7 width_1" style="stroke-width: 1"/><line x1="499" x2="543" y1="229" y2="229" class="net_7 width_1" style="stroke-width: 1"/><line x1="775" x2="816" y1="214" y2="214" class="net_16 width_1" style="stroke-width: 1"/><line x1="816" x2="816" y1="214" y2="286.5" class="net_16 width_1" style="stroke-width: 1"/><line x1="816" x2="860" y1="286.5" y2="286.5" class="net_16 width_1" style="stroke-width: 1"/><line x1="150" x2="177" y1="142.5" y2="142.5" class="net_4 width_1" style="stroke-width: 1"/><line x1="177" x2="177" y1="142.5" y2="263.5" class="net_4 width_1" style="stroke-width: 1"/><line x1="177" x2="860" y1="263.5" y2="263.5" class="net_4 width_1" style="stroke-width: 1"/><line x1="150" x2="816" y1="375" y2="375" class="net_8 width_1" style="stroke-width: 1"/><line x1="816" x2="816" y1="375" y2="309.5" class="net_8 width_1" style="stroke-width: 1"/><line x1="816" x2="860" y1="309.5" y2="309.5" class="net_8 width_1" style="stroke-width: 1"/><line x1="1092" x2="1133" y1="294.5" y2="294.5" class="net_17 width_1" style="stroke-width: 1"/><line x1="1133" x2="1133" y1="294.5" y2="367" class="net_17 width_1" style="stroke-width: 1"/><line x1="1133" x2="1177" y1="367" y2="367" class="net_17 width_1" style="stroke-width: 1"/><line x1="150" x2="167" y1="162.5" y2="162.5" class="net_5 width_1" style="stroke-width: 1"/><line x1="167" x2="167" y1="162.5" y2="344" class="net_5 width_1" style="stroke-width: 1"/><line x1="167" x2="1177" y1="344" y2="344" class="net_5 width_1" style="stroke-width: 1"/><line x1="150" x2="1133" y1="395" y2="395" class="net_9 width_1" style="stroke-width: 1"/><line x1="1133" x2="1133" y1="395" y2="390" class="net_9 width_1" style="stroke-width: 1"/><line x1="1133" x2="1177" y1="390" y2="390" class="net_9 width_1" style="stroke-width: 1"/><line x1="1489" x2="1563" y1="211" y2="211" class="net_10,11,12,13,14 width_5" style="stroke-width: 2"/><line x1="458" x2="1460" y1="50" y2="50" class="net_10 width_1" style="stroke-width: 1"/><line x1="1460" x2="1460" y1="50" y2="171" class="net_10 width_1" style="stroke-width: 1"/><line x1="1460" x2="1482" y1="171" y2="171" class="net_10 width_1" style="stroke-width: 1"/><line x1="775" x2="1450" y1="130.5" y2="130.5" class="net_11 width_1" style="stroke-width: 1"/><line x1="1450" x2="1450" y1="130.5" y2="191" class="net_11 width_1" style="stroke-width: 1"/><line x1="1450" x2="1482" y1="191" y2="191" class="net_11 width_1" style="stroke-width: 1"/><line x1="1092" x2="1482" y1="211" y2="211" class="net_12 width_1" style="stroke-width: 1"/><line x1="1409" x2="1450" y1="291.5" y2="291.5" class="net_13 width_1" style="stroke-width: 1"/><line x1="1450" x2="1450" y1="291.5" y2="231" class="net_13 width_1" style="stroke-width: 1"/><line x1="1450" x2="1482" y1="231" y2="231" class="net_13 width_1" style="stroke-width: 1"/><line x1="1409" x2="1460" y1="375" y2="375" class="net_14 width_1" style="stroke-width: 1"/><line x1="1460" x2="1460" y1="375" y2="251" class="net_14 width_1" style="stroke-width: 1"/><line x1="1460" x2="1482" y1="251" y2="251" class="net_14 width_1" style="stroke-width: 1"/><line x1="42" x2="143" y1="132.5" y2="132.5" class="net_2,3,4,5 width_4" style="stroke-width: 2"/><line x1="42" x2="143" y1="365" y2="365" class="net_6,7,8,9 width_4" style="stroke-width: 2"/><rect x="149" y="46" width="22" height="9" class="net_18,19,20,21,22,23,24,25,26,27,28,29,30,31,32,33,34,35,36,37,38,39,40,41,42,43,44,45,46,47,48,49 width_32 busLabel_32" style="fill: white; stroke: none"/><text x="148" y="54" class="net_18,19,20,21,22,23,24,25,26,27,28,29,30,31,32,33,34,35,36,37,38,39,40,41,42,43,44,45,46,47,48,49 width_32 busLabel_32">/32/</text><rect x="1525" y="206" width="16" height="9" class="net_10,11,12,13,14 width_5 busLabel_5" style="fill: white; stroke: none"/><text x="1524" y="214" class="net_10,11,12,13,14 width_5 busLabel_5">/5/</text><rect x="91.5" y="127.5" width="16" height="9" class="net_2,3,4,5 width_4 busLabel_4" style="fill: white; stroke: none"/><text x="90.5" y="135.5" class="net_2,3,4,5 width_4 busLabel_4">/4/</text><rect x="91.5" y="360" width="16" height="9" class="net_6,7,8,9 width_4 busLabel_4" style="fill: white; stroke: none"/><text x="90.5" y="368" class="net_6,7,8,9 width_4 busLabel_4">/4/</text></svg>